<?xml version="1.0" encoding="utf-8" standalone="no"?>
<!DOCTYPE svg PUBLIC "-//W3C//DTD SVG 1.1//EN"
  "http://www.w3.org/Graphics/SVG/1.1/DTD/svg11.dtd">
<svg xmlns:xlink="http://www.w3.org/1999/xlink" width="576pt" height="237.6pt" viewBox="0 0 576 237.6" xmlns="http://www.w3.org/2000/svg" version="1.1">
 <metadata>
  <rdf:RDF xmlns:dc="http://purl.org/dc/elements/1.1/" xmlns:cc="http://creativecommons.org/ns#" xmlns:rdf="http://www.w3.org/1999/02/22-rdf-syntax-ns#">
   <cc:Work>
    <dc:type rdf:resource="http://purl.org/dc/dcmitype/StillImage"/>
    <dc:date>2026-10-03T04:20:47.064230</dc:date>
    <dc:format>image/svg+xml</dc:format>
    <dc:creator>
     <cc:Agent>
      <dc:title>Matplotlib v3.10.8, https://matplotlib.org/</dc:title>
     </cc:Agent>
    </dc:creator>
   </cc:Work>
  </rdf:RDF>
 </metadata>
 <defs>
  <style type="text/css">*{stroke-linejoin: round; stroke-linecap: butt}</style>
 </defs>
 <g id="figure_1">
  <g id="patch_1">
   <path d="M 0 237.6
L 576 237.6
L 576 0
L 0 0
z
" style="fill: #ffffff"/>
  </g>
  <g id="axes_1">
   <g id="patch_2">
    <path d="M 67.968 182.304
L 177.984 182.304
L 177.984 69.408
L 67.968 69.408
z
" clip-path="url(#pcd4bd94099)" style="fill: #638da0; opacity: 0.2"/>
   </g>
   <g id="patch_3">
    <path d="M 232.992 182.304
L 343.008 182.304
L 343.008 69.408
L 232.992 69.408
z
" clip-path="url(#pcd4bd94099)" style="fill: #d27040; opacity: 0.2"/>
   </g>
   <g id="patch_4">
    <path d="M 404.892 182.304
L 514.908 182.304
L 514.908 69.408
L 404.892 69.408
z
" clip-path="url(#pcd4bd94099)" style="fill: #087f82; opacity: 0.2"/>
   </g>
   <g id="patch_5">
    <path d="M 95.472 133.6176
C 97.47789 133.6176 99.401894 132.799789 100.820273 131.34428
C 102.238651 129.888771 103.0356 127.9144 103.0356 125.856
C 103.0356 123.7976 102.238651 121.823229 100.820273 120.36772
C 99.401894 118.912211 97.47789 118.0944 95.472 118.0944
C 93.46611 118.0944 91.542106 118.912211 90.123727 120.36772
C 88.705349 121.823229 87.9084 123.7976 87.9084 125.856
C 87.9084 127.9144 88.705349 129.888771 90.123727 131.34428
C 91.542106 132.799789 93.46611 133.6176 95.472 133.6176
z
" clip-path="url(#pcd4bd94099)" style="fill: #087f82; stroke: #087f82; stroke-linejoin: miter"/>
   </g>
   <g id="patch_6">
    <path d="M 171.108 133.6176
C 173.11389 133.6176 175.037894 132.799789 176.456273 131.34428
C 177.874651 129.888771 178.6716 127.9144 178.6716 125.856
C 178.6716 123.7976 177.874651 121.823229 176.456273 120.36772
C 175.037894 118.912211 173.11389 118.0944 171.108 118.0944
C 169.10211 118.0944 167.178106 118.912211 165.759727 120.36772
C 164.341349 121.823229 163.5444 123.7976 163.5444 125.856
C 163.5444 127.9144 164.341349 129.888771 165.759727 131.34428
C 167.178106 132.799789 169.10211 133.6176 171.108 133.6176
z
" clip-path="url(#pcd4bd94099)" style="fill: #087f82; stroke: #087f82; stroke-linejoin: miter"/>
   </g>
   <g id="patch_7">
    <path d="M 246.744 133.6176
C 248.74989 133.6176 250.673894 132.799789 252.092273 131.34428
C 253.510651 129.888771 254.3076 127.9144 254.3076 125.856
C 254.3076 123.7976 253.510651 121.823229 252.092273 120.36772
C 250.673894 118.912211 248.74989 118.0944 246.744 118.0944
C 244.73811 118.0944 242.814106 118.912211 241.395727 120.36772
C 239.977349 121.823229 239.1804 123.7976 239.1804 125.856
C 239.1804 127.9144 239.977349 129.888771 241.395727 131.34428
C 242.814106 132.799789 244.73811 133.6176 246.744 133.6176
z
" clip-path="url(#pcd4bd94099)" style="fill: #087f82; stroke: #087f82; stroke-linejoin: miter"/>
   </g>
   <g id="patch_8">
    <path d="M 322.38 133.6176
C 324.38589 133.6176 326.309894 132.799789 327.728273 131.34428
C 329.146651 129.888771 329.9436 127.9144 329.9436 125.856
C 329.9436 123.7976 329.146651 121.823229 327.728273 120.36772
C 326.309894 118.912211 324.38589 118.0944 322.38 118.0944
C 320.37411 118.0944 318.450106 118.912211 317.031727 120.36772
C 315.613349 121.823229 314.8164 123.7976 314.8164 125.856
C 314.8164 127.9144 315.613349 129.888771 317.031727 131.34428
C 318.450106 132.799789 320.37411 133.6176 322.38 133.6176
z
" clip-path="url(#pcd4bd94099)" style="fill: #087f82; stroke: #087f82; stroke-linejoin: miter"/>
   </g>
   <g id="patch_9">
    <path d="M 398.016 133.6176
C 400.02189 133.6176 401.945894 132.799789 403.364273 131.34428
C 404.782651 129.888771 405.5796 127.9144 405.5796 125.856
C 405.5796 123.7976 404.782651 121.823229 403.364273 120.36772
C 401.945894 118.912211 400.02189 118.0944 398.016 118.0944
C 396.01011 118.0944 394.086106 118.912211 392.667727 120.36772
C 391.249349 121.823229 390.4524 123.7976 390.4524 125.856
C 390.4524 127.9144 391.249349 129.888771 392.667727 131.34428
C 394.086106 132.799789 396.01011 133.6176 398.016 133.6176
z
" clip-path="url(#pcd4bd94099)" style="fill: #087f82; stroke: #087f82; stroke-linejoin: miter"/>
   </g>
   <g id="patch_10">
    <path d="M 473.652 133.6176
C 475.65789 133.6176 477.581894 132.799789 479.000273 131.34428
C 480.418651 129.888771 481.2156 127.9144 481.2156 125.856
C 481.2156 123.7976 480.418651 121.823229 479.000273 120.36772
C 477.581894 118.912211 475.65789 118.0944 473.652 118.0944
C 471.64611 118.0944 469.722106 118.912211 468.303727 120.36772
C 466.885349 121.823229 466.0884 123.7976 466.0884 125.856
C 466.0884 127.9144 466.885349 129.888771 468.303727 131.34428
C 469.722106 132.799789 471.64611 133.6176 473.652 133.6176
z
" clip-path="url(#pcd4bd94099)" style="fill: #087f82; stroke: #087f82; stroke-linejoin: miter"/>
   </g>
   <g id="text_1">
    <!-- 벌크 전해질 -->
    <g transform="translate(94.031625 58.824) scale(0.12 -0.12)">
     <defs>
      <path id="NotoSansKRThin-Regular-bc8c" d="M 3066 4006
L 4723 4006
L 4723 3571
L 3066 3571
L 3066 4006
z
M 4550 5293
L 5075 5293
L 5075 2285
L 4550 2285
L 4550 5293
z
M 1350 2003
L 5075 2003
L 5075 621
L 1888 621
L 1888 -250
L 1363 -250
L 1363 1018
L 4550 1018
L 4550 1574
L 1350 1574
L 1350 2003
z
M 1363 6
L 5293 6
L 5293 -422
L 1363 -422
L 1363 6
z
M 602 5024
L 1133 5024
L 1133 4205
L 2694 4205
L 2694 5024
L 3219 5024
L 3219 2509
L 602 2509
L 602 5024
z
M 1133 3782
L 1133 2938
L 2694 2938
L 2694 3782
L 1133 3782
z
" transform="scale(0.015625)"/>
      <path id="NotoSansKRThin-Regular-d06c" d="M 947 4704
L 4614 4704
L 4614 4269
L 947 4269
L 947 4704
z
M 320 749
L 5549 749
L 5549 307
L 320 307
L 320 749
z
M 4390 4704
L 4909 4704
L 4909 3994
Q 4909 3571 4899 3145
Q 4890 2720 4838 2243
Q 4787 1766 4666 1171
L 4134 1222
Q 4262 1779 4316 2249
Q 4371 2720 4380 3149
Q 4390 3578 4390 3994
L 4390 4704
z
M 4518 3104
L 4518 2701
L 864 2509
L 787 2944
L 4518 3104
z
" transform="scale(0.015625)"/>
      <path id="NotoSansKRThin-Regular-20" transform="scale(0.015625)"/>
      <path id="NotoSansKRThin-Regular-c804" d="M 3386 3693
L 4851 3693
L 4851 3258
L 3386 3258
L 3386 3693
z
M 4550 5286
L 5082 5286
L 5082 1043
L 4550 1043
L 4550 5286
z
M 1389 64
L 5242 64
L 5242 -371
L 1389 -371
L 1389 64
z
M 1389 1421
L 1914 1421
L 1914 -154
L 1389 -154
L 1389 1421
z
M 1792 4570
L 2227 4570
L 2227 4102
Q 2227 3578 2025 3114
Q 1824 2650 1459 2307
Q 1094 1965 614 1779
L 339 2208
Q 659 2323 924 2515
Q 1190 2707 1388 2956
Q 1587 3206 1689 3500
Q 1792 3795 1792 4102
L 1792 4570
z
M 1894 4570
L 2330 4570
L 2330 4102
Q 2330 3731 2502 3379
Q 2675 3027 2995 2755
Q 3315 2483 3731 2336
L 3462 1914
Q 2989 2086 2637 2416
Q 2285 2746 2089 3181
Q 1894 3616 1894 4102
L 1894 4570
z
M 506 4819
L 3597 4819
L 3597 4384
L 506 4384
L 506 4819
z
" transform="scale(0.015625)"/>
      <path id="NotoSansKRThin-Regular-d574" d="M 307 4301
L 3181 4301
L 3181 3866
L 307 3866
L 307 4301
z
M 1747 3482
Q 2112 3482 2390 3315
Q 2669 3149 2829 2851
Q 2989 2554 2989 2163
Q 2989 1773 2829 1475
Q 2669 1178 2390 1008
Q 2112 838 1747 838
Q 1389 838 1107 1008
Q 826 1178 666 1475
Q 506 1773 506 2163
Q 506 2554 666 2848
Q 826 3142 1107 3312
Q 1389 3482 1747 3482
z
M 1747 3034
Q 1530 3034 1354 2922
Q 1178 2810 1078 2614
Q 979 2419 979 2163
Q 979 1907 1078 1708
Q 1178 1510 1354 1401
Q 1530 1293 1747 1293
Q 1971 1293 2144 1401
Q 2317 1510 2416 1708
Q 2515 1907 2515 2163
Q 2515 2419 2416 2614
Q 2317 2810 2144 2922
Q 1971 3034 1747 3034
z
M 4710 5293
L 5216 5293
L 5216 -499
L 4710 -499
L 4710 5293
z
M 3782 2854
L 4877 2854
L 4877 2419
L 3782 2419
L 3782 2854
z
M 3469 5158
L 3968 5158
L 3968 -218
L 3469 -218
L 3469 5158
z
M 1485 5120
L 2010 5120
L 2010 4038
L 1485 4038
L 1485 5120
z
" transform="scale(0.015625)"/>
      <path id="NotoSansKRThin-Regular-c9c8" d="M 4531 5293
L 5062 5293
L 5062 2291
L 4531 2291
L 4531 5293
z
M 1318 2010
L 5062 2010
L 5062 621
L 1850 621
L 1850 -198
L 1338 -198
L 1338 1011
L 4538 1011
L 4538 1594
L 1318 1594
L 1318 2010
z
M 1338 -13
L 5261 -13
L 5261 -435
L 1338 -435
L 1338 -13
z
M 1862 4781
L 2298 4781
L 2298 4474
Q 2298 3968 2090 3529
Q 1882 3091 1510 2768
Q 1139 2445 646 2278
L 397 2701
Q 723 2803 992 2982
Q 1261 3162 1456 3398
Q 1651 3635 1756 3907
Q 1862 4179 1862 4474
L 1862 4781
z
M 1971 4781
L 2400 4781
L 2400 4474
Q 2400 4198 2505 3939
Q 2611 3680 2809 3462
Q 3008 3245 3277 3078
Q 3546 2912 3866 2816
L 3610 2400
Q 3123 2554 2755 2858
Q 2387 3162 2179 3574
Q 1971 3987 1971 4474
L 1971 4781
z
M 538 4966
L 3706 4966
L 3706 4531
L 538 4531
L 538 4966
z
" transform="scale(0.015625)"/>
     </defs>
     <use xlink:href="#NotoSansKRThin-Regular-bc8c"/>
     <use xlink:href="#NotoSansKRThin-Regular-d06c" transform="translate(91.999985 0)"/>
     <use xlink:href="#NotoSansKRThin-Regular-20" transform="translate(183.999969 0)"/>
     <use xlink:href="#NotoSansKRThin-Regular-c804" transform="translate(206.399963 0)"/>
     <use xlink:href="#NotoSansKRThin-Regular-d574" transform="translate(298.399948 0)"/>
     <use xlink:href="#NotoSansKRThin-Regular-c9c8" transform="translate(390.399933 0)"/>
    </g>
   </g>
   <g id="text_2">
    <!-- 계면층 -->
    <g transform="translate(271.44 58.824) scale(0.12 -0.12)">
     <defs>
      <path id="NotoSansKRThin-Regular-acc4" d="M 2566 3686
L 3846 3686
L 3846 3251
L 2566 3251
L 2566 3686
z
M 2522 2234
L 3834 2234
L 3834 1798
L 2522 1798
L 2522 2234
z
M 4730 5293
L 5242 5293
L 5242 -499
L 4730 -499
L 4730 5293
z
M 3565 5139
L 4070 5139
L 4070 -205
L 3565 -205
L 3565 5139
z
M 2278 4557
L 2790 4557
Q 2790 3802 2572 3107
Q 2355 2413 1878 1814
Q 1402 1216 627 749
L 314 1133
Q 992 1542 1427 2057
Q 1862 2573 2070 3177
Q 2278 3782 2278 4461
L 2278 4557
z
M 570 4557
L 2483 4557
L 2483 4122
L 570 4122
L 570 4557
z
" transform="scale(0.015625)"/>
      <path id="NotoSansKRThin-Regular-ba74" d="M 3098 4275
L 4710 4275
L 4710 3834
L 3098 3834
L 3098 4275
z
M 3098 3034
L 4723 3034
L 4723 2598
L 3098 2598
L 3098 3034
z
M 589 4787
L 3226 4787
L 3226 2080
L 589 2080
L 589 4787
z
M 2707 4358
L 1107 4358
L 1107 2502
L 2707 2502
L 2707 4358
z
M 4550 5286
L 5082 5286
L 5082 1062
L 4550 1062
L 4550 5286
z
M 1363 64
L 5216 64
L 5216 -371
L 1363 -371
L 1363 64
z
M 1363 1440
L 1894 1440
L 1894 -134
L 1363 -134
L 1363 1440
z
" transform="scale(0.015625)"/>
      <path id="NotoSansKRThin-Regular-ce35" d="M 320 2355
L 5549 2355
L 5549 1920
L 320 1920
L 320 2355
z
M 2669 5306
L 3194 5306
L 3194 4499
L 2669 4499
L 2669 5306
z
M 2643 4448
L 3110 4448
L 3110 4358
Q 3110 4000 2928 3718
Q 2746 3437 2422 3232
Q 2099 3027 1680 2902
Q 1261 2778 787 2726
L 621 3136
Q 1043 3174 1408 3276
Q 1773 3379 2051 3539
Q 2330 3699 2486 3904
Q 2643 4109 2643 4358
L 2643 4448
z
M 2758 4448
L 3219 4448
L 3219 4358
Q 3219 4109 3376 3904
Q 3533 3699 3811 3539
Q 4090 3379 4454 3276
Q 4819 3174 5242 3136
L 5082 2726
Q 4608 2778 4189 2902
Q 3770 3027 3446 3232
Q 3123 3437 2940 3718
Q 2758 4000 2758 4358
L 2758 4448
z
M 858 4730
L 5018 4730
L 5018 4301
L 858 4301
L 858 4730
z
M 2931 1434
Q 3866 1434 4387 1187
Q 4909 941 4909 474
Q 4909 6 4387 -240
Q 3866 -486 2931 -486
Q 1997 -486 1472 -240
Q 947 6 947 474
Q 947 941 1472 1187
Q 1997 1434 2931 1434
z
M 2931 1030
Q 2240 1030 1862 886
Q 1485 742 1485 474
Q 1485 205 1862 61
Q 2240 -83 2931 -83
Q 3616 -83 3997 61
Q 4378 205 4378 474
Q 4378 742 3997 886
Q 3616 1030 2931 1030
z
" transform="scale(0.015625)"/>
     </defs>
     <use xlink:href="#NotoSansKRThin-Regular-acc4"/>
     <use xlink:href="#NotoSansKRThin-Regular-ba74" transform="translate(91.999985 0)"/>
     <use xlink:href="#NotoSansKRThin-Regular-ce35" transform="translate(183.999969 0)"/>
    </g>
   </g>
   <g id="text_3">
    <!-- 전극 내부 -->
    <g transform="translate(436.475625 58.824) scale(0.12 -0.12)">
     <defs>
      <path id="NotoSansKRThin-Regular-adf9" d="M 986 5018
L 4710 5018
L 4710 4582
L 986 4582
L 986 5018
z
M 320 2854
L 5568 2854
L 5568 2419
L 320 2419
L 320 2854
z
M 4365 5018
L 4890 5018
L 4890 4614
Q 4890 4262 4864 3792
Q 4838 3322 4710 2688
L 4186 2746
Q 4320 3360 4342 3817
Q 4365 4275 4365 4614
L 4365 5018
z
M 877 1562
L 4928 1562
L 4928 -512
L 4397 -512
L 4397 1133
L 877 1133
L 877 1562
z
" transform="scale(0.015625)"/>
      <path id="NotoSansKRThin-Regular-b0b4" d="M 4710 5293
L 5222 5293
L 5222 -499
L 4710 -499
L 4710 5293
z
M 3744 2938
L 4858 2938
L 4858 2496
L 3744 2496
L 3744 2938
z
M 3398 5165
L 3898 5165
L 3898 -198
L 3398 -198
L 3398 5165
z
M 602 4595
L 1133 4595
L 1133 1254
L 602 1254
L 602 4595
z
M 602 1466
L 966 1466
Q 1421 1466 1920 1501
Q 2419 1536 2982 1651
L 3046 1184
Q 2458 1069 1946 1033
Q 1434 998 966 998
L 602 998
L 602 1466
z
" transform="scale(0.015625)"/>
      <path id="NotoSansKRThin-Regular-bd80" d="M 314 1862
L 5562 1862
L 5562 1434
L 314 1434
L 314 1862
z
M 2662 1664
L 3187 1664
L 3187 -499
L 2662 -499
L 2662 1664
z
M 979 5056
L 1504 5056
L 1504 4262
L 4365 4262
L 4365 5056
L 4896 5056
L 4896 2554
L 979 2554
L 979 5056
z
M 1504 3834
L 1504 2989
L 4365 2989
L 4365 3834
L 1504 3834
z
" transform="scale(0.015625)"/>
     </defs>
     <use xlink:href="#NotoSansKRThin-Regular-c804"/>
     <use xlink:href="#NotoSansKRThin-Regular-adf9" transform="translate(91.999985 0)"/>
     <use xlink:href="#NotoSansKRThin-Regular-20" transform="translate(183.999969 0)"/>
     <use xlink:href="#NotoSansKRThin-Regular-b0b4" transform="translate(206.399963 0)"/>
     <use xlink:href="#NotoSansKRThin-Regular-bd80" transform="translate(298.399948 0)"/>
    </g>
   </g>
   <g id="patch_11">
    <path d="M 49.341233 154.08
Q 281.124731 154.08 510.67216 154.08
" style="fill: none; stroke: #000000; stroke-width: 2; stroke-linecap: round"/>
    <path d="M 505.87216 151.68
L 510.67216 154.08
L 505.87216 156.48
" style="fill: none; stroke: #000000; stroke-width: 2; stroke-linecap: round"/>
   </g>
   <g id="text_4">
    <!-- 각 구간의 저항·반응·접촉을 구별한다 -->
    <g transform="translate(194.435625 214.056) scale(0.12 -0.12)">
     <defs>
      <path id="NotoSansKRThin-Regular-ac01" d="M 4282 5293
L 4813 5293
L 4813 1901
L 4282 1901
L 4282 5293
z
M 4666 3827
L 5664 3827
L 5664 3379
L 4666 3379
L 4666 3827
z
M 2675 4922
L 3232 4922
Q 3232 4192 2909 3606
Q 2586 3021 1978 2605
Q 1370 2189 525 1958
L 307 2374
Q 1056 2579 1587 2915
Q 2118 3251 2396 3702
Q 2675 4154 2675 4685
L 2675 4922
z
M 570 4922
L 2976 4922
L 2976 4493
L 570 4493
L 570 4922
z
M 1050 1632
L 4813 1632
L 4813 -499
L 4282 -499
L 4282 1197
L 1050 1197
L 1050 1632
z
" transform="scale(0.015625)"/>
      <path id="NotoSansKRThin-Regular-ad6c" d="M 973 4915
L 4595 4915
L 4595 4486
L 973 4486
L 973 4915
z
M 320 2432
L 5549 2432
L 5549 1990
L 320 1990
L 320 2432
z
M 2656 2138
L 3187 2138
L 3187 -506
L 2656 -506
L 2656 2138
z
M 4339 4915
L 4864 4915
L 4864 4410
Q 4864 4109 4854 3776
Q 4845 3443 4800 3043
Q 4755 2643 4646 2157
L 4115 2227
Q 4288 2925 4313 3449
Q 4339 3974 4339 4410
L 4339 4915
z
" transform="scale(0.015625)"/>
      <path id="NotoSansKRThin-Regular-ac04" d="M 4275 5293
L 4813 5293
L 4813 1062
L 4275 1062
L 4275 5293
z
M 4646 3539
L 5664 3539
L 5664 3091
L 4646 3091
L 4646 3539
z
M 2694 4845
L 3258 4845
Q 3258 4096 2928 3488
Q 2598 2880 1990 2432
Q 1382 1984 550 1722
L 326 2150
Q 1056 2381 1587 2745
Q 2118 3110 2406 3584
Q 2694 4058 2694 4608
L 2694 4845
z
M 563 4845
L 2970 4845
L 2970 4403
L 563 4403
L 563 4845
z
M 1203 64
L 5062 64
L 5062 -371
L 1203 -371
L 1203 64
z
M 1203 1491
L 1734 1491
L 1734 -109
L 1203 -109
L 1203 1491
z
" transform="scale(0.015625)"/>
      <path id="NotoSansKRThin-Regular-c758" d="M 2195 4870
Q 2650 4870 2998 4700
Q 3347 4531 3545 4224
Q 3744 3917 3744 3507
Q 3744 3104 3545 2793
Q 3347 2483 2998 2313
Q 2650 2144 2195 2144
Q 1747 2144 1395 2313
Q 1043 2483 841 2793
Q 640 3104 640 3507
Q 640 3917 841 4224
Q 1043 4531 1395 4700
Q 1747 4870 2195 4870
z
M 2195 4410
Q 1901 4410 1667 4298
Q 1434 4186 1299 3981
Q 1165 3776 1165 3507
Q 1165 3238 1299 3033
Q 1434 2829 1667 2717
Q 1901 2605 2195 2605
Q 2496 2605 2726 2717
Q 2957 2829 3091 3033
Q 3226 3238 3226 3507
Q 3226 3776 3091 3981
Q 2957 4186 2726 4298
Q 2496 4410 2195 4410
z
M 4506 5293
L 5037 5293
L 5037 -506
L 4506 -506
L 4506 5293
z
M 422 762
L 352 1210
Q 883 1210 1516 1219
Q 2150 1229 2825 1270
Q 3501 1312 4128 1408
L 4173 1018
Q 3520 896 2851 841
Q 2182 787 1561 774
Q 941 762 422 762
z
" transform="scale(0.015625)"/>
      <path id="NotoSansKRThin-Regular-c800" d="M 4550 5293
L 5082 5293
L 5082 -506
L 4550 -506
L 4550 5293
z
M 3309 3187
L 4704 3187
L 4704 2752
L 3309 2752
L 3309 3187
z
M 1786 4467
L 2214 4467
L 2214 3597
Q 2214 3130 2089 2678
Q 1965 2227 1744 1830
Q 1523 1434 1225 1126
Q 928 819 589 640
L 269 1062
Q 582 1216 857 1485
Q 1133 1754 1341 2096
Q 1549 2438 1667 2825
Q 1786 3213 1786 3597
L 1786 4467
z
M 1901 4467
L 2323 4467
L 2323 3597
Q 2323 3238 2438 2870
Q 2554 2502 2762 2176
Q 2970 1850 3245 1590
Q 3520 1331 3834 1184
L 3520 762
Q 3174 934 2880 1228
Q 2586 1523 2365 1904
Q 2144 2285 2022 2720
Q 1901 3155 1901 3597
L 1901 4467
z
M 486 4698
L 3629 4698
L 3629 4262
L 486 4262
L 486 4698
z
" transform="scale(0.015625)"/>
      <path id="NotoSansKRThin-Regular-d56d" d="M 4282 5293
L 4813 5293
L 4813 1562
L 4282 1562
L 4282 5293
z
M 4666 3686
L 5664 3686
L 5664 3238
L 4666 3238
L 4666 3686
z
M 2995 1517
Q 3578 1517 4000 1398
Q 4422 1280 4649 1056
Q 4877 832 4877 512
Q 4877 198 4649 -26
Q 4422 -250 4000 -368
Q 3578 -486 2995 -486
Q 2406 -486 1987 -368
Q 1568 -250 1337 -26
Q 1107 198 1107 512
Q 1107 832 1337 1056
Q 1568 1280 1987 1398
Q 2406 1517 2995 1517
z
M 2995 1101
Q 2355 1101 1993 947
Q 1632 794 1632 512
Q 1632 230 1993 76
Q 2355 -77 2995 -77
Q 3629 -77 3990 76
Q 4352 230 4352 512
Q 4352 794 3990 947
Q 3629 1101 2995 1101
z
M 333 4640
L 3750 4640
L 3750 4218
L 333 4218
L 333 4640
z
M 2042 3923
Q 2458 3923 2768 3795
Q 3078 3667 3251 3440
Q 3424 3213 3424 2899
Q 3424 2592 3251 2361
Q 3078 2131 2768 2006
Q 2458 1882 2042 1882
Q 1626 1882 1315 2006
Q 1005 2131 829 2361
Q 653 2592 653 2899
Q 653 3213 829 3440
Q 1005 3667 1315 3795
Q 1626 3923 2042 3923
z
M 2042 3520
Q 1645 3520 1405 3350
Q 1165 3181 1165 2899
Q 1165 2618 1405 2451
Q 1645 2285 2042 2285
Q 2432 2285 2675 2451
Q 2918 2618 2918 2899
Q 2918 3181 2675 3350
Q 2432 3520 2042 3520
z
M 1779 5338
L 2310 5338
L 2310 4403
L 1779 4403
L 1779 5338
z
" transform="scale(0.015625)"/>
      <path id="NotoSansKRThin-Regular-b7" d="M 1766 1875
Q 1594 1875 1472 2003
Q 1350 2131 1350 2323
Q 1350 2528 1472 2653
Q 1594 2778 1766 2778
Q 1939 2778 2067 2653
Q 2195 2528 2195 2323
Q 2195 2131 2067 2003
Q 1939 1875 1766 1875
z
" transform="scale(0.015625)"/>
      <path id="NotoSansKRThin-Regular-bc18" d="M 4282 5286
L 4813 5286
L 4813 1037
L 4282 1037
L 4282 5286
z
M 4646 3539
L 5664 3539
L 5664 3098
L 4646 3098
L 4646 3539
z
M 1210 64
L 5069 64
L 5069 -371
L 1210 -371
L 1210 64
z
M 1210 1446
L 1734 1446
L 1734 -32
L 1210 -32
L 1210 1446
z
M 557 4870
L 1082 4870
L 1082 3904
L 2714 3904
L 2714 4870
L 3238 4870
L 3238 2010
L 557 2010
L 557 4870
z
M 1082 3488
L 1082 2438
L 2714 2438
L 2714 3488
L 1082 3488
z
" transform="scale(0.015625)"/>
      <path id="NotoSansKRThin-Regular-c751" d="M 320 2477
L 5549 2477
L 5549 2048
L 320 2048
L 320 2477
z
M 2931 1568
Q 3859 1568 4384 1302
Q 4909 1037 4909 538
Q 4909 45 4384 -227
Q 3859 -499 2931 -499
Q 2003 -499 1475 -227
Q 947 45 947 538
Q 947 1037 1475 1302
Q 2003 1568 2931 1568
z
M 2931 1158
Q 2477 1158 2153 1084
Q 1830 1011 1657 873
Q 1485 736 1485 538
Q 1485 346 1657 202
Q 1830 58 2153 -12
Q 2477 -83 2931 -83
Q 3386 -83 3709 -12
Q 4032 58 4205 202
Q 4378 346 4378 538
Q 4378 736 4205 873
Q 4032 1011 3709 1084
Q 3386 1158 2931 1158
z
M 2931 5146
Q 3558 5146 4012 5011
Q 4467 4877 4716 4633
Q 4966 4390 4966 4045
Q 4966 3699 4716 3452
Q 4467 3206 4012 3075
Q 3558 2944 2931 2944
Q 2310 2944 1852 3075
Q 1395 3206 1145 3452
Q 896 3699 896 4045
Q 896 4390 1145 4633
Q 1395 4877 1852 5011
Q 2310 5146 2931 5146
z
M 2931 4723
Q 2477 4723 2141 4643
Q 1805 4563 1622 4412
Q 1440 4262 1440 4045
Q 1440 3827 1622 3676
Q 1805 3526 2141 3446
Q 2477 3366 2931 3366
Q 3392 3366 3728 3446
Q 4064 3526 4243 3676
Q 4422 3827 4422 4045
Q 4422 4262 4243 4412
Q 4064 4563 3728 4643
Q 3392 4723 2931 4723
z
" transform="scale(0.015625)"/>
      <path id="NotoSansKRThin-Regular-c811" d="M 3405 3891
L 4691 3891
L 4691 3450
L 3405 3450
L 3405 3891
z
M 4550 5293
L 5075 5293
L 5075 2144
L 4550 2144
L 4550 5293
z
M 1376 1869
L 1901 1869
L 1901 1158
L 4550 1158
L 4550 1869
L 5075 1869
L 5075 -422
L 1376 -422
L 1376 1869
z
M 1901 736
L 1901 13
L 4550 13
L 4550 736
L 1901 736
z
M 1792 4838
L 2227 4838
L 2227 4365
Q 2227 3840 2025 3379
Q 1824 2918 1459 2572
Q 1094 2227 614 2048
L 339 2470
Q 659 2586 924 2778
Q 1190 2970 1388 3222
Q 1587 3475 1689 3766
Q 1792 4058 1792 4365
L 1792 4838
z
M 1894 4838
L 2330 4838
L 2330 4365
Q 2330 3994 2502 3645
Q 2675 3296 2995 3024
Q 3315 2752 3731 2598
L 3462 2182
Q 2989 2355 2637 2681
Q 2285 3008 2089 3446
Q 1894 3885 1894 4365
L 1894 4838
z
M 506 4947
L 3597 4947
L 3597 4512
L 506 4512
L 506 4947
z
" transform="scale(0.015625)"/>
      <path id="NotoSansKRThin-Regular-cd09" d="M 320 2227
L 5549 2227
L 5549 1798
L 320 1798
L 320 2227
z
M 2669 2944
L 3194 2944
L 3194 2035
L 2669 2035
L 2669 2944
z
M 902 1248
L 4902 1248
L 4902 -499
L 4371 -499
L 4371 819
L 902 819
L 902 1248
z
M 2669 5318
L 3194 5318
L 3194 4512
L 2669 4512
L 2669 5318
z
M 2643 4429
L 3110 4429
L 3110 4333
Q 3110 3974 2931 3689
Q 2752 3405 2429 3200
Q 2106 2995 1686 2864
Q 1267 2733 794 2682
L 627 3091
Q 1050 3130 1414 3235
Q 1779 3341 2057 3501
Q 2336 3661 2489 3872
Q 2643 4083 2643 4333
L 2643 4429
z
M 2758 4429
L 3219 4429
L 3219 4333
Q 3219 4083 3376 3872
Q 3533 3661 3811 3501
Q 4090 3341 4451 3235
Q 4813 3130 5235 3091
L 5069 2682
Q 4602 2733 4179 2864
Q 3757 2995 3437 3200
Q 3117 3405 2937 3689
Q 2758 3974 2758 4333
L 2758 4429
z
M 858 4723
L 5018 4723
L 5018 4294
L 858 4294
L 858 4723
z
" transform="scale(0.015625)"/>
      <path id="NotoSansKRThin-Regular-c744" d="M 2931 5190
Q 3891 5190 4428 4931
Q 4966 4672 4966 4192
Q 4966 3706 4428 3446
Q 3891 3187 2931 3187
Q 1978 3187 1437 3446
Q 896 3706 896 4192
Q 896 4672 1437 4931
Q 1978 5190 2931 5190
z
M 2931 4794
Q 2464 4794 2131 4723
Q 1798 4653 1622 4518
Q 1446 4384 1446 4192
Q 1446 4000 1622 3862
Q 1798 3725 2131 3657
Q 2464 3590 2931 3590
Q 3405 3590 3737 3657
Q 4070 3725 4246 3862
Q 4422 4000 4422 4192
Q 4422 4384 4246 4518
Q 4070 4653 3737 4723
Q 3405 4794 2931 4794
z
M 320 2797
L 5549 2797
L 5549 2368
L 320 2368
L 320 2797
z
M 954 1875
L 4877 1875
L 4877 570
L 1485 570
L 1485 -128
L 966 -128
L 966 960
L 4358 960
L 4358 1466
L 954 1466
L 954 1875
z
M 966 -19
L 5050 -19
L 5050 -435
L 966 -435
L 966 -19
z
" transform="scale(0.015625)"/>
      <path id="NotoSansKRThin-Regular-bcc4" d="M 3053 4467
L 4678 4467
L 4678 4058
L 3053 4058
L 3053 4467
z
M 3053 3418
L 4678 3418
L 4678 3002
L 3053 3002
L 3053 3418
z
M 4550 5293
L 5075 5293
L 5075 2272
L 4550 2272
L 4550 5293
z
M 1350 1990
L 5075 1990
L 5075 614
L 1888 614
L 1888 -275
L 1363 -275
L 1363 1018
L 4550 1018
L 4550 1568
L 1350 1568
L 1350 1990
z
M 1363 6
L 5293 6
L 5293 -422
L 1363 -422
L 1363 6
z
M 602 5024
L 1133 5024
L 1133 4198
L 2694 4198
L 2694 5024
L 3219 5024
L 3219 2502
L 602 2502
L 602 5024
z
M 1133 3782
L 1133 2931
L 2694 2931
L 2694 3782
L 1133 3782
z
" transform="scale(0.015625)"/>
      <path id="NotoSansKRThin-Regular-d55c" d="M 4282 5286
L 4813 5286
L 4813 947
L 4282 947
L 4282 5286
z
M 4646 3386
L 5664 3386
L 5664 2944
L 4646 2944
L 4646 3386
z
M 333 4582
L 3750 4582
L 3750 4154
L 333 4154
L 333 4582
z
M 2042 3840
Q 2451 3840 2764 3702
Q 3078 3565 3251 3325
Q 3424 3085 3424 2758
Q 3424 2432 3251 2192
Q 3078 1952 2764 1817
Q 2451 1683 2042 1683
Q 1632 1683 1318 1817
Q 1005 1952 829 2192
Q 653 2432 653 2758
Q 653 3085 829 3325
Q 1005 3565 1318 3702
Q 1632 3840 2042 3840
z
M 2042 3424
Q 1651 3424 1408 3241
Q 1165 3059 1165 2758
Q 1165 2458 1408 2278
Q 1651 2099 2042 2099
Q 2438 2099 2678 2278
Q 2918 2458 2918 2758
Q 2918 3059 2678 3241
Q 2438 3424 2042 3424
z
M 1779 5286
L 2310 5286
L 2310 4365
L 1779 4365
L 1779 5286
z
M 1210 64
L 5069 64
L 5069 -371
L 1210 -371
L 1210 64
z
M 1210 1293
L 1734 1293
L 1734 -115
L 1210 -115
L 1210 1293
z
" transform="scale(0.015625)"/>
      <path id="NotoSansKRThin-Regular-b2e4" d="M 4237 5293
L 4768 5293
L 4768 -506
L 4237 -506
L 4237 5293
z
M 4646 3008
L 5715 3008
L 5715 2566
L 4646 2566
L 4646 3008
z
M 570 1389
L 1024 1389
Q 1555 1389 2000 1405
Q 2445 1421 2857 1465
Q 3270 1510 3699 1587
L 3763 1133
Q 3315 1056 2896 1011
Q 2477 966 2022 953
Q 1568 941 1024 941
L 570 941
L 570 1389
z
M 570 4730
L 3251 4730
L 3251 4294
L 1094 4294
L 1094 1184
L 570 1184
L 570 4730
z
" transform="scale(0.015625)"/>
     </defs>
     <use xlink:href="#NotoSansKRThin-Regular-ac01"/>
     <use xlink:href="#NotoSansKRThin-Regular-20" transform="translate(91.999985 0)"/>
     <use xlink:href="#NotoSansKRThin-Regular-ad6c" transform="translate(114.399979 0)"/>
     <use xlink:href="#NotoSansKRThin-Regular-ac04" transform="translate(206.399963 0)"/>
     <use xlink:href="#NotoSansKRThin-Regular-c758" transform="translate(298.399948 0)"/>
     <use xlink:href="#NotoSansKRThin-Regular-20" transform="translate(390.399933 0)"/>
     <use xlink:href="#NotoSansKRThin-Regular-c800" transform="translate(412.799927 0)"/>
     <use xlink:href="#NotoSansKRThin-Regular-d56d" transform="translate(504.799911 0)"/>
     <use xlink:href="#NotoSansKRThin-Regular-b7" transform="translate(596.799896 0)"/>
     <use xlink:href="#NotoSansKRThin-Regular-bc18" transform="translate(652.899887 0)"/>
     <use xlink:href="#NotoSansKRThin-Regular-c751" transform="translate(744.899872 0)"/>
     <use xlink:href="#NotoSansKRThin-Regular-b7" transform="translate(836.899857 0)"/>
     <use xlink:href="#NotoSansKRThin-Regular-c811" transform="translate(892.999847 0)"/>
     <use xlink:href="#NotoSansKRThin-Regular-cd09" transform="translate(984.999832 0)"/>
     <use xlink:href="#NotoSansKRThin-Regular-c744" transform="translate(1076.999817 0)"/>
     <use xlink:href="#NotoSansKRThin-Regular-20" transform="translate(1168.999802 0)"/>
     <use xlink:href="#NotoSansKRThin-Regular-ad6c" transform="translate(1191.399796 0)"/>
     <use xlink:href="#NotoSansKRThin-Regular-bcc4" transform="translate(1283.39978 0)"/>
     <use xlink:href="#NotoSansKRThin-Regular-d55c" transform="translate(1375.399765 0)"/>
     <use xlink:href="#NotoSansKRThin-Regular-b2e4" transform="translate(1467.39975 0)"/>
    </g>
   </g>
  </g>
 </g>
 <defs>
  <clipPath id="pcd4bd94099">
   <rect x="12.96" y="12.96" width="550.08" height="211.68"/>
  </clipPath>
 </defs>
</svg>
