<?xml version="1.0" encoding="utf-8" standalone="no"?>
<!DOCTYPE svg PUBLIC "-//W3C//DTD SVG 1.1//EN"
  "http://www.w3.org/Graphics/SVG/1.1/DTD/svg11.dtd">
<svg xmlns:xlink="http://www.w3.org/1999/xlink" width="576pt" height="237.6pt" viewBox="0 0 576 237.6" xmlns="http://www.w3.org/2000/svg" version="1.1">
 <metadata>
  <rdf:RDF xmlns:dc="http://purl.org/dc/elements/1.1/" xmlns:cc="http://creativecommons.org/ns#" xmlns:rdf="http://www.w3.org/1999/02/22-rdf-syntax-ns#">
   <cc:Work>
    <dc:type rdf:resource="http://purl.org/dc/dcmitype/StillImage"/>
    <dc:date>2026-10-03T04:20:47.249199</dc:date>
    <dc:format>image/svg+xml</dc:format>
    <dc:creator>
     <cc:Agent>
      <dc:title>Matplotlib v3.10.8, https://matplotlib.org/</dc:title>
     </cc:Agent>
    </dc:creator>
   </cc:Work>
  </rdf:RDF>
 </metadata>
 <defs>
  <style type="text/css">*{stroke-linejoin: round; stroke-linecap: butt}</style>
 </defs>
 <g id="figure_1">
  <g id="patch_1">
   <path d="M 0 237.6
L 576 237.6
L 576 0
L 0 0
z
" style="fill: #ffffff"/>
  </g>
  <g id="axes_1">
   <g id="patch_2">
    <path d="M 47.34 154.08
L 528.66 154.08
L 528.66 136.44
L 47.34 136.44
z
" clip-path="url(#p884b06bba0)" style="fill: #638da0; stroke: #638da0; stroke-linejoin: miter"/>
   </g>
   <g id="patch_3">
    <path d="M 47.34 136.44
L 528.66 136.44
L 528.66 90.576
L 47.34 90.576
z
" clip-path="url(#p884b06bba0)" style="fill: #087f82; opacity: 0.2; stroke: #087f82; stroke-linejoin: miter"/>
   </g>
   <g id="patch_4">
    <path d="M 47.34 90.576
L 528.66 90.576
L 528.66 62.352
L 47.34 62.352
z
" clip-path="url(#p884b06bba0)" style="fill: #d27040; opacity: 0.3; stroke: #d27040; stroke-linejoin: miter"/>
   </g>
   <g id="text_1">
    <!-- 집전체: 전자를 모으는 경로 -->
    <g transform="translate(221.579062 185.832) scale(0.12 -0.12)">
     <defs>
      <path id="NotoSansKRThin-Regular-c9d1" d="M 1862 4794
L 2298 4794
L 2298 4346
Q 2298 3840 2093 3398
Q 1888 2957 1517 2633
Q 1146 2310 659 2144
L 390 2566
Q 717 2669 985 2848
Q 1254 3027 1449 3264
Q 1645 3501 1753 3779
Q 1862 4058 1862 4346
L 1862 4794
z
M 1965 4794
L 2400 4794
L 2400 4346
Q 2400 4070 2505 3808
Q 2611 3546 2809 3322
Q 3008 3098 3277 2928
Q 3546 2758 3866 2662
L 3603 2246
Q 3123 2400 2752 2707
Q 2381 3014 2173 3436
Q 1965 3859 1965 4346
L 1965 4794
z
M 538 4909
L 3706 4909
L 3706 4480
L 538 4480
L 538 4909
z
M 4531 5293
L 5062 5293
L 5062 2157
L 4531 2157
L 4531 5293
z
M 1338 1875
L 1856 1875
L 1856 1184
L 4538 1184
L 4538 1875
L 5062 1875
L 5062 -422
L 1338 -422
L 1338 1875
z
M 1856 762
L 1856 13
L 4538 13
L 4538 762
L 1856 762
z
" transform="scale(0.015625)"/>
      <path id="NotoSansKRThin-Regular-c804" d="M 3386 3693
L 4851 3693
L 4851 3258
L 3386 3258
L 3386 3693
z
M 4550 5286
L 5082 5286
L 5082 1043
L 4550 1043
L 4550 5286
z
M 1389 64
L 5242 64
L 5242 -371
L 1389 -371
L 1389 64
z
M 1389 1421
L 1914 1421
L 1914 -154
L 1389 -154
L 1389 1421
z
M 1792 4570
L 2227 4570
L 2227 4102
Q 2227 3578 2025 3114
Q 1824 2650 1459 2307
Q 1094 1965 614 1779
L 339 2208
Q 659 2323 924 2515
Q 1190 2707 1388 2956
Q 1587 3206 1689 3500
Q 1792 3795 1792 4102
L 1792 4570
z
M 1894 4570
L 2330 4570
L 2330 4102
Q 2330 3731 2502 3379
Q 2675 3027 2995 2755
Q 3315 2483 3731 2336
L 3462 1914
Q 2989 2086 2637 2416
Q 2285 2746 2089 3181
Q 1894 3616 1894 4102
L 1894 4570
z
M 506 4819
L 3597 4819
L 3597 4384
L 506 4384
L 506 4819
z
" transform="scale(0.015625)"/>
      <path id="NotoSansKRThin-Regular-ccb4" d="M 2682 3008
L 3770 3008
L 3770 2566
L 2682 2566
L 2682 3008
z
M 1504 3808
L 1914 3808
L 1914 3507
Q 1914 3078 1824 2656
Q 1734 2234 1564 1856
Q 1395 1478 1148 1177
Q 902 877 582 685
L 269 1088
Q 563 1261 793 1526
Q 1024 1792 1181 2115
Q 1338 2438 1421 2796
Q 1504 3155 1504 3507
L 1504 3808
z
M 1600 3808
L 2010 3808
L 2010 3507
Q 2010 3168 2093 2825
Q 2176 2483 2336 2176
Q 2496 1869 2723 1622
Q 2950 1376 3245 1210
L 2944 813
Q 2522 1050 2221 1469
Q 1920 1888 1760 2419
Q 1600 2950 1600 3507
L 1600 3808
z
M 429 4224
L 3072 4224
L 3072 3789
L 429 3789
L 429 4224
z
M 1504 5082
L 2010 5082
L 2010 3891
L 1504 3891
L 1504 5082
z
M 4723 5293
L 5229 5293
L 5229 -499
L 4723 -499
L 4723 5293
z
M 3565 5158
L 4064 5158
L 4064 -198
L 3565 -198
L 3565 5158
z
" transform="scale(0.015625)"/>
      <path id="NotoSansKRThin-Regular-3a" d="M 890 2496
Q 717 2496 592 2621
Q 467 2746 467 2944
Q 467 3142 592 3267
Q 717 3392 890 3392
Q 1062 3392 1187 3267
Q 1312 3142 1312 2944
Q 1312 2746 1187 2621
Q 1062 2496 890 2496
z
M 890 -83
Q 717 -83 592 41
Q 467 166 467 358
Q 467 563 592 684
Q 717 806 890 806
Q 1062 806 1187 684
Q 1312 563 1312 358
Q 1312 166 1187 41
Q 1062 -83 890 -83
z
" transform="scale(0.015625)"/>
      <path id="NotoSansKRThin-Regular-20" transform="scale(0.015625)"/>
      <path id="NotoSansKRThin-Regular-c790" d="M 1747 4461
L 2176 4461
L 2176 3526
Q 2176 3072 2048 2627
Q 1920 2182 1693 1788
Q 1466 1395 1171 1091
Q 877 787 538 614
L 224 1037
Q 538 1190 810 1456
Q 1082 1722 1293 2064
Q 1504 2406 1625 2780
Q 1747 3155 1747 3526
L 1747 4461
z
M 1850 4461
L 2272 4461
L 2272 3526
Q 2272 3181 2384 2829
Q 2496 2477 2701 2157
Q 2906 1837 3178 1584
Q 3450 1331 3757 1178
L 3456 755
Q 3117 928 2822 1219
Q 2528 1510 2310 1881
Q 2093 2253 1971 2675
Q 1850 3098 1850 3526
L 1850 4461
z
M 429 4698
L 3552 4698
L 3552 4256
L 429 4256
L 429 4698
z
M 4237 5293
L 4768 5293
L 4768 -499
L 4237 -499
L 4237 5293
z
M 4646 2957
L 5715 2957
L 5715 2509
L 4646 2509
L 4646 2957
z
" transform="scale(0.015625)"/>
      <path id="NotoSansKRThin-Regular-b97c" d="M 314 2605
L 5562 2605
L 5562 2195
L 314 2195
L 314 2605
z
M 941 1734
L 4909 1734
L 4909 499
L 1478 499
L 1478 -179
L 954 -179
L 954 864
L 4384 864
L 4384 1350
L 941 1350
L 941 1734
z
M 954 -38
L 5094 -38
L 5094 -422
L 954 -422
L 954 -38
z
M 979 5120
L 4890 5120
L 4890 3917
L 1517 3917
L 1517 3290
L 992 3290
L 992 4275
L 4365 4275
L 4365 4742
L 979 4742
L 979 5120
z
M 992 3418
L 4992 3418
L 4992 3034
L 992 3034
L 992 3418
z
" transform="scale(0.015625)"/>
      <path id="NotoSansKRThin-Regular-baa8" d="M 320 685
L 5568 685
L 5568 243
L 320 243
L 320 685
z
M 2669 2182
L 3194 2182
L 3194 563
L 2669 563
L 2669 2182
z
M 934 4813
L 4928 4813
L 4928 2086
L 934 2086
L 934 4813
z
M 4410 4384
L 1453 4384
L 1453 2509
L 4410 2509
L 4410 4384
z
" transform="scale(0.015625)"/>
      <path id="NotoSansKRThin-Regular-c73c" d="M 2931 4922
Q 3539 4922 4012 4723
Q 4486 4525 4761 4166
Q 5037 3808 5037 3328
Q 5037 2842 4761 2483
Q 4486 2125 4012 1926
Q 3539 1728 2931 1728
Q 2336 1728 1859 1926
Q 1382 2125 1107 2483
Q 832 2842 832 3328
Q 832 3808 1107 4166
Q 1382 4525 1859 4723
Q 2336 4922 2931 4922
z
M 2931 4493
Q 2477 4493 2118 4345
Q 1760 4198 1549 3939
Q 1338 3680 1338 3328
Q 1338 2982 1549 2720
Q 1760 2458 2118 2310
Q 2477 2163 2931 2163
Q 3392 2163 3750 2310
Q 4109 2458 4317 2720
Q 4525 2982 4525 3328
Q 4525 3680 4317 3939
Q 4109 4198 3750 4345
Q 3392 4493 2931 4493
z
M 320 710
L 5568 710
L 5568 269
L 320 269
L 320 710
z
" transform="scale(0.015625)"/>
      <path id="NotoSansKRThin-Regular-b294" d="M 1024 3552
L 4960 3552
L 4960 3123
L 1024 3123
L 1024 3552
z
M 314 2349
L 5562 2349
L 5562 1914
L 314 1914
L 314 2349
z
M 1024 5082
L 1549 5082
L 1549 3334
L 1024 3334
L 1024 5082
z
M 986 77
L 4992 77
L 4992 -358
L 986 -358
L 986 77
z
M 986 1331
L 1517 1331
L 1517 -38
L 986 -38
L 986 1331
z
" transform="scale(0.015625)"/>
      <path id="NotoSansKRThin-Regular-acbd" d="M 3091 4224
L 4640 4224
L 4640 3795
L 3091 3795
L 3091 4224
z
M 3040 3021
L 4602 3021
L 4602 2586
L 3040 2586
L 3040 3021
z
M 4550 5286
L 5082 5286
L 5082 1824
L 4550 1824
L 4550 5286
z
M 2739 4858
L 3302 4858
Q 3302 4115 2979 3520
Q 2656 2925 2051 2499
Q 1446 2074 614 1824
L 397 2246
Q 1133 2464 1657 2813
Q 2182 3162 2460 3619
Q 2739 4077 2739 4627
L 2739 4858
z
M 691 4858
L 3098 4858
L 3098 4422
L 691 4422
L 691 4858
z
M 3200 1760
Q 3789 1760 4214 1625
Q 4640 1491 4877 1241
Q 5114 992 5114 646
Q 5114 294 4877 48
Q 4640 -198 4214 -336
Q 3789 -474 3200 -474
Q 2618 -474 2186 -336
Q 1754 -198 1517 48
Q 1280 294 1280 646
Q 1280 992 1517 1241
Q 1754 1491 2186 1625
Q 2618 1760 3200 1760
z
M 3200 1338
Q 2778 1338 2464 1254
Q 2150 1171 1977 1017
Q 1805 864 1805 646
Q 1805 429 1977 275
Q 2150 122 2464 38
Q 2778 -45 3200 -45
Q 3629 -45 3936 38
Q 4243 122 4416 275
Q 4589 429 4589 646
Q 4589 864 4416 1017
Q 4243 1171 3936 1254
Q 3629 1338 3200 1338
z
" transform="scale(0.015625)"/>
      <path id="NotoSansKRThin-Regular-b85c" d="M 320 659
L 5568 659
L 5568 218
L 320 218
L 320 659
z
M 2669 1894
L 3194 1894
L 3194 474
L 2669 474
L 2669 1894
z
M 960 4864
L 4915 4864
L 4915 3110
L 1498 3110
L 1498 1952
L 973 1952
L 973 3533
L 4390 3533
L 4390 4429
L 960 4429
L 960 4864
z
M 973 2176
L 5050 2176
L 5050 1741
L 973 1741
L 973 2176
z
" transform="scale(0.015625)"/>
     </defs>
     <use xlink:href="#NotoSansKRThin-Regular-c9d1"/>
     <use xlink:href="#NotoSansKRThin-Regular-c804" transform="translate(91.999985 0)"/>
     <use xlink:href="#NotoSansKRThin-Regular-ccb4" transform="translate(183.999969 0)"/>
     <use xlink:href="#NotoSansKRThin-Regular-3a" transform="translate(275.999954 0)"/>
     <use xlink:href="#NotoSansKRThin-Regular-20" transform="translate(303.799942 0)"/>
     <use xlink:href="#NotoSansKRThin-Regular-c804" transform="translate(326.199936 0)"/>
     <use xlink:href="#NotoSansKRThin-Regular-c790" transform="translate(418.199921 0)"/>
     <use xlink:href="#NotoSansKRThin-Regular-b97c" transform="translate(510.199905 0)"/>
     <use xlink:href="#NotoSansKRThin-Regular-20" transform="translate(602.19989 0)"/>
     <use xlink:href="#NotoSansKRThin-Regular-baa8" transform="translate(624.599884 0)"/>
     <use xlink:href="#NotoSansKRThin-Regular-c73c" transform="translate(716.599869 0)"/>
     <use xlink:href="#NotoSansKRThin-Regular-b294" transform="translate(808.599854 0)"/>
     <use xlink:href="#NotoSansKRThin-Regular-20" transform="translate(900.599838 0)"/>
     <use xlink:href="#NotoSansKRThin-Regular-acbd" transform="translate(922.999832 0)"/>
     <use xlink:href="#NotoSansKRThin-Regular-b85c" transform="translate(1014.999817 0)"/>
    </g>
   </g>
   <g id="text_2">
    <!-- 다공성 전극: 이온 + 전자 경로 -->
    <g transform="translate(215.560312 114.5664) scale(0.12 -0.12)">
     <defs>
      <path id="NotoSansKRThin-Regular-b2e4" d="M 4237 5293
L 4768 5293
L 4768 -506
L 4237 -506
L 4237 5293
z
M 4646 3008
L 5715 3008
L 5715 2566
L 4646 2566
L 4646 3008
z
M 570 1389
L 1024 1389
Q 1555 1389 2000 1405
Q 2445 1421 2857 1465
Q 3270 1510 3699 1587
L 3763 1133
Q 3315 1056 2896 1011
Q 2477 966 2022 953
Q 1568 941 1024 941
L 570 941
L 570 1389
z
M 570 4730
L 3251 4730
L 3251 4294
L 1094 4294
L 1094 1184
L 570 1184
L 570 4730
z
" transform="scale(0.015625)"/>
      <path id="NotoSansKRThin-Regular-acf5" d="M 2912 1638
Q 3533 1638 3984 1510
Q 4435 1382 4681 1145
Q 4928 909 4928 570
Q 4928 243 4681 3
Q 4435 -237 3984 -361
Q 3533 -486 2912 -486
Q 2298 -486 1843 -361
Q 1389 -237 1145 3
Q 902 243 902 570
Q 902 909 1145 1145
Q 1389 1382 1843 1510
Q 2298 1638 2912 1638
z
M 2912 1229
Q 2458 1229 2125 1149
Q 1792 1069 1609 921
Q 1427 774 1427 570
Q 1427 378 1609 230
Q 1792 83 2125 6
Q 2458 -70 2912 -70
Q 3373 -70 3705 6
Q 4038 83 4220 230
Q 4403 378 4403 570
Q 4403 774 4220 921
Q 4038 1069 3705 1149
Q 3373 1229 2912 1229
z
M 941 4998
L 4666 4998
L 4666 4570
L 941 4570
L 941 4998
z
M 326 2598
L 5542 2598
L 5542 2163
L 326 2163
L 326 2598
z
M 2470 3712
L 2995 3712
L 2995 2470
L 2470 2470
L 2470 3712
z
M 4358 4998
L 4883 4998
L 4883 4512
Q 4883 4160 4864 3792
Q 4845 3424 4723 2976
L 4205 3034
Q 4320 3482 4339 3827
Q 4358 4173 4358 4512
L 4358 4998
z
" transform="scale(0.015625)"/>
      <path id="NotoSansKRThin-Regular-c131" d="M 1779 4966
L 2221 4966
L 2221 4371
Q 2221 3808 2019 3334
Q 1818 2861 1456 2505
Q 1094 2150 595 1965
L 314 2394
Q 762 2554 1088 2848
Q 1414 3142 1596 3536
Q 1779 3930 1779 4371
L 1779 4966
z
M 1875 4966
L 2304 4966
L 2304 4390
Q 2304 3981 2483 3616
Q 2662 3251 2979 2972
Q 3296 2694 3718 2554
L 3430 2138
Q 2963 2317 2611 2643
Q 2259 2970 2067 3418
Q 1875 3866 1875 4390
L 1875 4966
z
M 4550 5293
L 5082 5293
L 5082 1869
L 4550 1869
L 4550 5293
z
M 3174 1696
Q 4070 1696 4585 1408
Q 5101 1120 5101 602
Q 5101 90 4585 -198
Q 4070 -486 3174 -486
Q 2278 -486 1763 -198
Q 1248 90 1248 602
Q 1248 1120 1763 1408
Q 2278 1696 3174 1696
z
M 3174 1274
Q 2739 1274 2425 1194
Q 2112 1114 1942 963
Q 1773 813 1773 602
Q 1773 397 1942 246
Q 2112 96 2425 16
Q 2739 -64 3174 -64
Q 3616 -64 3926 16
Q 4237 96 4406 246
Q 4576 397 4576 602
Q 4576 813 4406 963
Q 4237 1114 3926 1194
Q 3616 1274 3174 1274
z
M 3290 4070
L 4659 4070
L 4659 3629
L 3290 3629
L 3290 4070
z
" transform="scale(0.015625)"/>
      <path id="NotoSansKRThin-Regular-adf9" d="M 986 5018
L 4710 5018
L 4710 4582
L 986 4582
L 986 5018
z
M 320 2854
L 5568 2854
L 5568 2419
L 320 2419
L 320 2854
z
M 4365 5018
L 4890 5018
L 4890 4614
Q 4890 4262 4864 3792
Q 4838 3322 4710 2688
L 4186 2746
Q 4320 3360 4342 3817
Q 4365 4275 4365 4614
L 4365 5018
z
M 877 1562
L 4928 1562
L 4928 -512
L 4397 -512
L 4397 1133
L 877 1133
L 877 1562
z
" transform="scale(0.015625)"/>
      <path id="NotoSansKRThin-Regular-c774" d="M 4525 5293
L 5056 5293
L 5056 -506
L 4525 -506
L 4525 5293
z
M 2003 4845
Q 2432 4845 2761 4598
Q 3091 4352 3280 3897
Q 3469 3443 3469 2829
Q 3469 2214 3280 1760
Q 3091 1306 2761 1056
Q 2432 806 2003 806
Q 1574 806 1241 1056
Q 909 1306 720 1760
Q 531 2214 531 2829
Q 531 3443 720 3897
Q 909 4352 1241 4598
Q 1574 4845 2003 4845
z
M 2003 4371
Q 1715 4371 1500 4182
Q 1286 3994 1164 3645
Q 1043 3296 1043 2829
Q 1043 2362 1164 2013
Q 1286 1664 1500 1472
Q 1715 1280 2003 1280
Q 2285 1280 2499 1472
Q 2714 1664 2835 2013
Q 2957 2362 2957 2829
Q 2957 3296 2835 3645
Q 2714 3994 2499 4182
Q 2285 4371 2003 4371
z
" transform="scale(0.015625)"/>
      <path id="NotoSansKRThin-Regular-c628" d="M 320 2214
L 5549 2214
L 5549 1779
L 320 1779
L 320 2214
z
M 2669 3066
L 3200 3066
L 3200 1990
L 2669 1990
L 2669 3066
z
M 992 64
L 4966 64
L 4966 -371
L 992 -371
L 992 64
z
M 992 1306
L 1523 1306
L 1523 -70
L 992 -70
L 992 1306
z
M 2931 5120
Q 3552 5120 4009 4982
Q 4467 4845 4716 4585
Q 4966 4326 4966 3968
Q 4966 3603 4716 3344
Q 4467 3085 4009 2947
Q 3552 2810 2931 2810
Q 2310 2810 1852 2947
Q 1395 3085 1145 3344
Q 896 3603 896 3968
Q 896 4326 1145 4585
Q 1395 4845 1852 4982
Q 2310 5120 2931 5120
z
M 2931 4691
Q 2483 4691 2147 4604
Q 1811 4518 1625 4355
Q 1440 4192 1440 3968
Q 1440 3738 1625 3578
Q 1811 3418 2147 3331
Q 2483 3245 2931 3245
Q 3392 3245 3725 3331
Q 4058 3418 4240 3578
Q 4422 3738 4422 3968
Q 4422 4192 4240 4355
Q 4058 4518 3725 4604
Q 3392 4691 2931 4691
z
" transform="scale(0.015625)"/>
      <path id="NotoSansKRThin-Regular-2b" d="M 1542 742
L 1542 2144
L 243 2144
L 243 2579
L 1542 2579
L 1542 3981
L 2010 3981
L 2010 2579
L 3315 2579
L 3315 2144
L 2010 2144
L 2010 742
L 1542 742
z
" transform="scale(0.015625)"/>
     </defs>
     <use xlink:href="#NotoSansKRThin-Regular-b2e4"/>
     <use xlink:href="#NotoSansKRThin-Regular-acf5" transform="translate(91.999985 0)"/>
     <use xlink:href="#NotoSansKRThin-Regular-c131" transform="translate(183.999969 0)"/>
     <use xlink:href="#NotoSansKRThin-Regular-20" transform="translate(275.999954 0)"/>
     <use xlink:href="#NotoSansKRThin-Regular-c804" transform="translate(298.399948 0)"/>
     <use xlink:href="#NotoSansKRThin-Regular-adf9" transform="translate(390.399933 0)"/>
     <use xlink:href="#NotoSansKRThin-Regular-3a" transform="translate(482.399918 0)"/>
     <use xlink:href="#NotoSansKRThin-Regular-20" transform="translate(510.199905 0)"/>
     <use xlink:href="#NotoSansKRThin-Regular-c774" transform="translate(532.599899 0)"/>
     <use xlink:href="#NotoSansKRThin-Regular-c628" transform="translate(624.599884 0)"/>
     <use xlink:href="#NotoSansKRThin-Regular-20" transform="translate(716.599869 0)"/>
     <use xlink:href="#NotoSansKRThin-Regular-2b" transform="translate(738.999863 0)"/>
     <use xlink:href="#NotoSansKRThin-Regular-20" transform="translate(794.499847 0)"/>
     <use xlink:href="#NotoSansKRThin-Regular-c804" transform="translate(816.899841 0)"/>
     <use xlink:href="#NotoSansKRThin-Regular-c790" transform="translate(908.899826 0)"/>
     <use xlink:href="#NotoSansKRThin-Regular-20" transform="translate(1000.899811 0)"/>
     <use xlink:href="#NotoSansKRThin-Regular-acbd" transform="translate(1023.299805 0)"/>
     <use xlink:href="#NotoSansKRThin-Regular-b85c" transform="translate(1115.299789 0)"/>
    </g>
   </g>
   <g id="text_3">
    <!-- 분리막: 전자 차단 + 전해질을 통한 이온 이동 -->
    <g transform="translate(179.751562 41.184) scale(0.12 -0.12)">
     <defs>
      <path id="NotoSansKRThin-Regular-bd84" d="M 314 2234
L 5562 2234
L 5562 1805
L 314 1805
L 314 2234
z
M 2707 2016
L 3238 2016
L 3238 685
L 2707 685
L 2707 2016
z
M 979 64
L 4979 64
L 4979 -371
L 979 -371
L 979 64
z
M 979 1203
L 1504 1203
L 1504 -96
L 979 -96
L 979 1203
z
M 1011 5107
L 1536 5107
L 1536 4371
L 4339 4371
L 4339 5107
L 4864 5107
L 4864 2790
L 1011 2790
L 1011 5107
z
M 1536 3962
L 1536 3219
L 4339 3219
L 4339 3962
L 1536 3962
z
" transform="scale(0.015625)"/>
      <path id="NotoSansKRThin-Regular-b9ac" d="M 4538 5293
L 5062 5293
L 5062 -506
L 4538 -506
L 4538 5293
z
M 653 1338
L 1133 1338
Q 1626 1338 2083 1354
Q 2541 1370 3011 1414
Q 3482 1459 3994 1542
L 4045 1107
Q 3264 979 2573 937
Q 1882 896 1133 896
L 653 896
L 653 1338
z
M 640 4755
L 3315 4755
L 3315 2688
L 1190 2688
L 1190 1171
L 653 1171
L 653 3117
L 2778 3117
L 2778 4320
L 640 4320
L 640 4755
z
" transform="scale(0.015625)"/>
      <path id="NotoSansKRThin-Regular-b9c9" d="M 557 4858
L 3219 4858
L 3219 2291
L 557 2291
L 557 4858
z
M 2701 4435
L 1075 4435
L 1075 2720
L 2701 2720
L 2701 4435
z
M 4282 5293
L 4813 5293
L 4813 1862
L 4282 1862
L 4282 5293
z
M 4666 3789
L 5664 3789
L 5664 3347
L 4666 3347
L 4666 3789
z
M 1050 1555
L 4813 1555
L 4813 -506
L 4282 -506
L 4282 1126
L 1050 1126
L 1050 1555
z
" transform="scale(0.015625)"/>
      <path id="NotoSansKRThin-Regular-cc28" d="M 1728 3917
L 2150 3917
L 2150 3418
Q 2150 2963 2032 2531
Q 1914 2099 1699 1728
Q 1485 1357 1197 1072
Q 909 787 563 621
L 262 1030
Q 582 1184 851 1433
Q 1120 1683 1315 2003
Q 1510 2323 1619 2684
Q 1728 3046 1728 3418
L 1728 3917
z
M 1830 3917
L 2246 3917
L 2246 3418
Q 2246 3072 2352 2729
Q 2458 2387 2643 2083
Q 2829 1779 3088 1532
Q 3347 1286 3661 1133
L 3360 730
Q 3021 896 2742 1174
Q 2464 1453 2259 1808
Q 2054 2163 1942 2576
Q 1830 2989 1830 3418
L 1830 3917
z
M 422 4288
L 3533 4288
L 3533 3859
L 422 3859
L 422 4288
z
M 1722 5184
L 2253 5184
L 2253 4051
L 1722 4051
L 1722 5184
z
M 4237 5293
L 4768 5293
L 4768 -499
L 4237 -499
L 4237 5293
z
M 4646 2918
L 5715 2918
L 5715 2470
L 4646 2470
L 4646 2918
z
" transform="scale(0.015625)"/>
      <path id="NotoSansKRThin-Regular-b2e8" d="M 4282 5293
L 4813 5293
L 4813 1101
L 4282 1101
L 4282 5293
z
M 4646 3578
L 5670 3578
L 5670 3136
L 4646 3136
L 4646 3578
z
M 589 2566
L 1037 2566
Q 1632 2566 2080 2579
Q 2528 2592 2905 2637
Q 3283 2682 3667 2758
L 3731 2323
Q 3328 2246 2941 2201
Q 2554 2157 2099 2141
Q 1645 2125 1037 2125
L 589 2125
L 589 2566
z
M 589 4794
L 3142 4794
L 3142 4358
L 1114 4358
L 1114 2330
L 589 2330
L 589 4794
z
M 1210 64
L 5069 64
L 5069 -371
L 1210 -371
L 1210 64
z
M 1210 1523
L 1734 1523
L 1734 -134
L 1210 -134
L 1210 1523
z
" transform="scale(0.015625)"/>
      <path id="NotoSansKRThin-Regular-d574" d="M 307 4301
L 3181 4301
L 3181 3866
L 307 3866
L 307 4301
z
M 1747 3482
Q 2112 3482 2390 3315
Q 2669 3149 2829 2851
Q 2989 2554 2989 2163
Q 2989 1773 2829 1475
Q 2669 1178 2390 1008
Q 2112 838 1747 838
Q 1389 838 1107 1008
Q 826 1178 666 1475
Q 506 1773 506 2163
Q 506 2554 666 2848
Q 826 3142 1107 3312
Q 1389 3482 1747 3482
z
M 1747 3034
Q 1530 3034 1354 2922
Q 1178 2810 1078 2614
Q 979 2419 979 2163
Q 979 1907 1078 1708
Q 1178 1510 1354 1401
Q 1530 1293 1747 1293
Q 1971 1293 2144 1401
Q 2317 1510 2416 1708
Q 2515 1907 2515 2163
Q 2515 2419 2416 2614
Q 2317 2810 2144 2922
Q 1971 3034 1747 3034
z
M 4710 5293
L 5216 5293
L 5216 -499
L 4710 -499
L 4710 5293
z
M 3782 2854
L 4877 2854
L 4877 2419
L 3782 2419
L 3782 2854
z
M 3469 5158
L 3968 5158
L 3968 -218
L 3469 -218
L 3469 5158
z
M 1485 5120
L 2010 5120
L 2010 4038
L 1485 4038
L 1485 5120
z
" transform="scale(0.015625)"/>
      <path id="NotoSansKRThin-Regular-c9c8" d="M 4531 5293
L 5062 5293
L 5062 2291
L 4531 2291
L 4531 5293
z
M 1318 2010
L 5062 2010
L 5062 621
L 1850 621
L 1850 -198
L 1338 -198
L 1338 1011
L 4538 1011
L 4538 1594
L 1318 1594
L 1318 2010
z
M 1338 -13
L 5261 -13
L 5261 -435
L 1338 -435
L 1338 -13
z
M 1862 4781
L 2298 4781
L 2298 4474
Q 2298 3968 2090 3529
Q 1882 3091 1510 2768
Q 1139 2445 646 2278
L 397 2701
Q 723 2803 992 2982
Q 1261 3162 1456 3398
Q 1651 3635 1756 3907
Q 1862 4179 1862 4474
L 1862 4781
z
M 1971 4781
L 2400 4781
L 2400 4474
Q 2400 4198 2505 3939
Q 2611 3680 2809 3462
Q 3008 3245 3277 3078
Q 3546 2912 3866 2816
L 3610 2400
Q 3123 2554 2755 2858
Q 2387 3162 2179 3574
Q 1971 3987 1971 4474
L 1971 4781
z
M 538 4966
L 3706 4966
L 3706 4531
L 538 4531
L 538 4966
z
" transform="scale(0.015625)"/>
      <path id="NotoSansKRThin-Regular-c744" d="M 2931 5190
Q 3891 5190 4428 4931
Q 4966 4672 4966 4192
Q 4966 3706 4428 3446
Q 3891 3187 2931 3187
Q 1978 3187 1437 3446
Q 896 3706 896 4192
Q 896 4672 1437 4931
Q 1978 5190 2931 5190
z
M 2931 4794
Q 2464 4794 2131 4723
Q 1798 4653 1622 4518
Q 1446 4384 1446 4192
Q 1446 4000 1622 3862
Q 1798 3725 2131 3657
Q 2464 3590 2931 3590
Q 3405 3590 3737 3657
Q 4070 3725 4246 3862
Q 4422 4000 4422 4192
Q 4422 4384 4246 4518
Q 4070 4653 3737 4723
Q 3405 4794 2931 4794
z
M 320 2797
L 5549 2797
L 5549 2368
L 320 2368
L 320 2797
z
M 954 1875
L 4877 1875
L 4877 570
L 1485 570
L 1485 -128
L 966 -128
L 966 960
L 4358 960
L 4358 1466
L 954 1466
L 954 1875
z
M 966 -19
L 5050 -19
L 5050 -435
L 966 -435
L 966 -19
z
" transform="scale(0.015625)"/>
      <path id="NotoSansKRThin-Regular-d1b5" d="M 314 2227
L 5549 2227
L 5549 1798
L 314 1798
L 314 2227
z
M 2662 2976
L 3194 2976
L 3194 2048
L 2662 2048
L 2662 2976
z
M 1005 3206
L 4934 3206
L 4934 2790
L 1005 2790
L 1005 3206
z
M 1005 5126
L 4902 5126
L 4902 4704
L 1536 4704
L 1536 2982
L 1005 2982
L 1005 5126
z
M 1376 4173
L 4749 4173
L 4749 3770
L 1376 3770
L 1376 4173
z
M 2931 1370
Q 3872 1370 4390 1133
Q 4909 896 4909 442
Q 4909 -13 4390 -249
Q 3872 -486 2931 -486
Q 1984 -486 1465 -249
Q 947 -13 947 442
Q 947 896 1465 1133
Q 1984 1370 2931 1370
z
M 2925 966
Q 2234 966 1856 832
Q 1478 698 1478 442
Q 1478 179 1856 48
Q 2234 -83 2925 -83
Q 3629 -83 4003 48
Q 4378 179 4378 442
Q 4378 698 4003 832
Q 3629 966 2925 966
z
" transform="scale(0.015625)"/>
      <path id="NotoSansKRThin-Regular-d55c" d="M 4282 5286
L 4813 5286
L 4813 947
L 4282 947
L 4282 5286
z
M 4646 3386
L 5664 3386
L 5664 2944
L 4646 2944
L 4646 3386
z
M 333 4582
L 3750 4582
L 3750 4154
L 333 4154
L 333 4582
z
M 2042 3840
Q 2451 3840 2764 3702
Q 3078 3565 3251 3325
Q 3424 3085 3424 2758
Q 3424 2432 3251 2192
Q 3078 1952 2764 1817
Q 2451 1683 2042 1683
Q 1632 1683 1318 1817
Q 1005 1952 829 2192
Q 653 2432 653 2758
Q 653 3085 829 3325
Q 1005 3565 1318 3702
Q 1632 3840 2042 3840
z
M 2042 3424
Q 1651 3424 1408 3241
Q 1165 3059 1165 2758
Q 1165 2458 1408 2278
Q 1651 2099 2042 2099
Q 2438 2099 2678 2278
Q 2918 2458 2918 2758
Q 2918 3059 2678 3241
Q 2438 3424 2042 3424
z
M 1779 5286
L 2310 5286
L 2310 4365
L 1779 4365
L 1779 5286
z
M 1210 64
L 5069 64
L 5069 -371
L 1210 -371
L 1210 64
z
M 1210 1293
L 1734 1293
L 1734 -115
L 1210 -115
L 1210 1293
z
" transform="scale(0.015625)"/>
      <path id="NotoSansKRThin-Regular-b3d9" d="M 320 2438
L 5555 2438
L 5555 2010
L 320 2010
L 320 2438
z
M 2675 3366
L 3194 3366
L 3194 2259
L 2675 2259
L 2675 3366
z
M 979 3533
L 4941 3533
L 4941 3104
L 979 3104
L 979 3533
z
M 979 5024
L 4902 5024
L 4902 4602
L 1504 4602
L 1504 3277
L 979 3277
L 979 5024
z
M 2931 1594
Q 3859 1594 4384 1322
Q 4909 1050 4909 550
Q 4909 51 4384 -221
Q 3859 -493 2931 -493
Q 2003 -493 1475 -221
Q 947 51 947 550
Q 947 1050 1475 1322
Q 2003 1594 2931 1594
z
M 2925 1178
Q 2477 1178 2153 1104
Q 1830 1030 1657 892
Q 1485 755 1485 550
Q 1485 352 1657 211
Q 1830 70 2153 -3
Q 2477 -77 2925 -77
Q 3386 -77 3709 -3
Q 4032 70 4205 211
Q 4378 352 4378 550
Q 4378 755 4205 892
Q 4032 1030 3709 1104
Q 3386 1178 2925 1178
z
" transform="scale(0.015625)"/>
     </defs>
     <use xlink:href="#NotoSansKRThin-Regular-bd84"/>
     <use xlink:href="#NotoSansKRThin-Regular-b9ac" transform="translate(91.999985 0)"/>
     <use xlink:href="#NotoSansKRThin-Regular-b9c9" transform="translate(183.999969 0)"/>
     <use xlink:href="#NotoSansKRThin-Regular-3a" transform="translate(275.999954 0)"/>
     <use xlink:href="#NotoSansKRThin-Regular-20" transform="translate(303.799942 0)"/>
     <use xlink:href="#NotoSansKRThin-Regular-c804" transform="translate(326.199936 0)"/>
     <use xlink:href="#NotoSansKRThin-Regular-c790" transform="translate(418.199921 0)"/>
     <use xlink:href="#NotoSansKRThin-Regular-20" transform="translate(510.199905 0)"/>
     <use xlink:href="#NotoSansKRThin-Regular-cc28" transform="translate(532.599899 0)"/>
     <use xlink:href="#NotoSansKRThin-Regular-b2e8" transform="translate(624.599884 0)"/>
     <use xlink:href="#NotoSansKRThin-Regular-20" transform="translate(716.599869 0)"/>
     <use xlink:href="#NotoSansKRThin-Regular-2b" transform="translate(738.999863 0)"/>
     <use xlink:href="#NotoSansKRThin-Regular-20" transform="translate(794.499847 0)"/>
     <use xlink:href="#NotoSansKRThin-Regular-c804" transform="translate(816.899841 0)"/>
     <use xlink:href="#NotoSansKRThin-Regular-d574" transform="translate(908.899826 0)"/>
     <use xlink:href="#NotoSansKRThin-Regular-c9c8" transform="translate(1000.899811 0)"/>
     <use xlink:href="#NotoSansKRThin-Regular-c744" transform="translate(1092.899796 0)"/>
     <use xlink:href="#NotoSansKRThin-Regular-20" transform="translate(1184.89978 0)"/>
     <use xlink:href="#NotoSansKRThin-Regular-d1b5" transform="translate(1207.299774 0)"/>
     <use xlink:href="#NotoSansKRThin-Regular-d55c" transform="translate(1299.299759 0)"/>
     <use xlink:href="#NotoSansKRThin-Regular-20" transform="translate(1391.299744 0)"/>
     <use xlink:href="#NotoSansKRThin-Regular-c774" transform="translate(1413.699738 0)"/>
     <use xlink:href="#NotoSansKRThin-Regular-c628" transform="translate(1505.699722 0)"/>
     <use xlink:href="#NotoSansKRThin-Regular-20" transform="translate(1597.699707 0)"/>
     <use xlink:href="#NotoSansKRThin-Regular-c774" transform="translate(1620.099701 0)"/>
     <use xlink:href="#NotoSansKRThin-Regular-b3d9" transform="translate(1712.099686 0)"/>
    </g>
   </g>
  </g>
 </g>
 <defs>
  <clipPath id="p884b06bba0">
   <rect x="12.96" y="12.96" width="550.08" height="211.68"/>
  </clipPath>
 </defs>
</svg>
